<svg xmlns="http://www.w3.org/2000/svg" width="168.189" height="40" viewBox="0 0 168.189 40">
  <g id="Group_160516" data-name="Group 160516" transform="translate(-1031 -826)">
    <g id="Group_160515" data-name="Group 160515">
      <g id="Group_160510" data-name="Group 160510" transform="translate(1075.911 841.299)">
        <path id="Path_83990" data-name="Path 83990" d="M96.4,19.336h2.713V1.2H96.4Zm24.44-11.6L117.724,15.6h-.093L114.4,7.734h-2.924l4.841,10.988-2.759,6.113h2.83l7.46-17.1Zm-15.389,9.542c-.888,0-2.129-.442-2.129-1.54,0-1.4,1.544-1.935,2.878-1.935a4.84,4.84,0,0,1,2.478.606,3.285,3.285,0,0,1-3.227,2.869Zm.327-9.938a5.1,5.1,0,0,0-4.841,2.776l2.408,1a2.576,2.576,0,0,1,2.479-1.33,2.611,2.611,0,0,1,2.853,2.334v.186a6.014,6.014,0,0,0-2.83-.7c-2.6,0-5.238,1.423-5.238,4.082,0,2.427,2.127,3.99,4.514,3.99a3.828,3.828,0,0,0,3.461-1.774h.093v1.4h2.62V12.353c0-3.219-2.41-5.014-5.52-5.014ZM89,9.942H85.146V3.727H89a3.147,3.147,0,0,1,3.182,3.107A3.164,3.164,0,0,1,89,9.942ZM88.934,1.2h-6.5V19.336h2.713v-6.87h3.788A5.755,5.755,0,0,0,94.9,6.834,5.754,5.754,0,0,0,88.934,1.2ZM53.48,17.279a3.543,3.543,0,0,1-3.443-3.715A3.572,3.572,0,0,1,53.48,9.8a3.481,3.481,0,0,1,3.3,3.763,3.451,3.451,0,0,1-3.3,3.715ZM56.6,8.75H56.5a4.291,4.291,0,0,0-3.256-1.378,6.174,6.174,0,0,0,0,12.338,4.218,4.218,0,0,0,3.256-1.4H56.6V19.2c0,2.36-1.265,3.622-3.3,3.622a3.418,3.418,0,0,1-3.115-2.2L47.81,21.6a5.893,5.893,0,0,0,5.482,3.645c3.186,0,5.881-1.87,5.881-6.426V7.745H56.6Zm4.451,10.586h2.718V1.2H61.048Zm6.724-5.982A3.386,3.386,0,0,1,71,9.755a2.4,2.4,0,0,1,2.3,1.308ZM76.2,11.3A5.745,5.745,0,0,0,70.91,7.372a5.868,5.868,0,0,0-5.833,6.169,6.044,6.044,0,0,0,6.138,6.169,6.154,6.154,0,0,0,5.154-2.734l-2.109-1.4a3.533,3.533,0,0,1-3.045,1.706,3.145,3.145,0,0,1-3-1.868L76.486,12ZM10.319,9.265v2.617H16.6a5.456,5.456,0,0,1-1.429,3.294,6.434,6.434,0,0,1-4.85,1.918,6.881,6.881,0,0,1-6.887-6.964,6.88,6.88,0,0,1,6.887-6.964,6.7,6.7,0,0,1,4.732,1.87L16.9,3.188A9.163,9.163,0,0,0,10.319.547,9.729,9.729,0,0,0,.573,10.129a9.727,9.727,0,0,0,9.746,9.581,8.8,8.8,0,0,0,6.7-2.688A8.634,8.634,0,0,0,19.291,10.9a8.559,8.559,0,0,0-.14-1.635ZM26.43,17.279a3.573,3.573,0,0,1-3.491-3.738,3.5,3.5,0,1,1,6.981,0,3.572,3.572,0,0,1-3.49,3.738Zm0-9.907a6.09,6.09,0,0,0-6.209,6.169,6.209,6.209,0,0,0,12.417,0A6.088,6.088,0,0,0,26.43,7.372Zm13.543,9.907a3.572,3.572,0,0,1-3.49-3.738,3.5,3.5,0,1,1,6.98,0,3.572,3.572,0,0,1-3.49,3.738Zm0-9.907a6.088,6.088,0,0,0-6.208,6.169,6.208,6.208,0,0,0,12.416,0,6.088,6.088,0,0,0-6.208-6.169Z" transform="translate(-0.573 -0.547)" fill="#fff"/>
      </g>
      <g id="Group_160511" data-name="Group 160511" transform="translate(1075.901 826)">
        <path id="Path_83991" data-name="Path 83991" d="M40.467.138v5.4L40.5,6.8,36.4.138H34.785V9.405h1.429V3.666l-.034-1.26,4.3,7H41.9V.138Z" transform="translate(15.672 0.063)" fill="#fff"/>
        <path id="Path_83992" data-name="Path 83992" d="M35.348,4.834A3.406,3.406,0,0,1,34.406,7.3a3.22,3.22,0,0,1-4.6,0,3.411,3.411,0,0,1-.941-2.469,3.411,3.411,0,0,1,.941-2.469,3.224,3.224,0,0,1,4.6,0,3.406,3.406,0,0,1,.942,2.469M32.109,0a4.464,4.464,0,0,0-3.348,1.405,4.785,4.785,0,0,0-1.345,3.429,4.783,4.783,0,0,0,1.345,3.429,4.7,4.7,0,0,0,6.7,0A4.781,4.781,0,0,0,36.8,4.834a4.78,4.78,0,0,0-1.35-3.424A4.467,4.467,0,0,0,32.109,0" transform="translate(12.352 0.001)" fill="#fff"/>
        <path id="Path_83993" data-name="Path 83993" d="M20.662,1.539h2.471V9.4h1.43V1.539h2.471V.139H20.662Z" transform="translate(9.309 0.063)" fill="#fff"/>
        <path id="Path_83994" data-name="Path 83994" d="M18.891,9.4h1.432V.138H18.891Z" transform="translate(8.511 0.062)" fill="#fff"/>
        <path id="Path_83995" data-name="Path 83995" d="M11.668,1.539h2.471V9.4H15.57V1.539h2.471V.139H11.668Z" transform="translate(5.257 0.063)" fill="#fff"/>
        <path id="Path_83996" data-name="Path 83996" d="M7.29,9.405H12.75V8H8.722V5.461h3.633V4.084H8.722V1.54H12.75V.138H7.29Z" transform="translate(3.285 0.063)" fill="#fff"/>
        <path id="Path_83997" data-name="Path 83997" d="M9.152,4.372H4.6V5.748h3.2A2.628,2.628,0,0,1,7.109,7.31a3.2,3.2,0,0,1-2.366.957A3.207,3.207,0,0,1,2.43,7.313a3.325,3.325,0,0,1-.975-2.478,3.326,3.326,0,0,1,.975-2.48A3.213,3.213,0,0,1,4.743,1.4a2.807,2.807,0,0,1,2.309,1.01l.1.126.985-1-.086-.1A3.816,3.816,0,0,0,6.617.388,4.679,4.679,0,0,0,4.743,0,4.58,4.58,0,0,0,1.384,1.39,4.708,4.708,0,0,0,0,4.835,4.707,4.707,0,0,0,1.384,8.279,4.582,4.582,0,0,0,4.743,9.667,4.416,4.416,0,0,0,8.1,8.3,4.242,4.242,0,0,0,9.239,5.2a3.994,3.994,0,0,0-.065-.7l-.022-.124Z" transform="translate(0 0)" fill="#fff"/>
      </g>
    </g>
    <g id="_63676ba9ca5ec41687b99b09_google-icon" data-name="63676ba9ca5ec41687b99b09_google-icon" transform="translate(1030.5 827)">
      <path id="Path_84002" data-name="Path 84002" d="M1.151,1.722A2.829,2.829,0,0,0,.5,3.711V34.88a2.7,2.7,0,0,0,.667,1.974l.112.093L19,19.482V19.09L1.264,1.629Z" transform="translate(0 0.213)" fill="#f6f8ee" fill-rule="evenodd"/>
      <path id="Path_84003" data-name="Path 84003" d="M20.134,22.2,14.32,16.509v-.4l5.815-5.687.126.076,6.878,3.823c1.969,1.086,1.969,2.874,0,3.975L20.261,22.12S20.134,22.2,20.134,22.2Z" transform="translate(4.68 3.191)" fill="#fff" fill-rule="evenodd"/>
      <path id="Path_84004" data-name="Path 84004" d="M24.886,20.893,18.718,14.82.5,32.749c.665.7,1.785.783,3.037.1Z" transform="translate(0 4.68)" fill="#fff" fill-rule="evenodd" opacity="0.4"/>
      <path id="Path_84005" data-name="Path 84005" d="M24.886,13.426,3.537,1.483C2.287.779,1.165.874.5,1.578L18.716,19.5Z" fill="#fff" fill-rule="evenodd" opacity="0.2"/>
    </g>
  </g>
</svg>
