<?xml version="1.0" encoding="iso-8859-1"?>
<!-- Uploaded to: SVG Repo, www.svgrepo.com, Generator: SVG Repo Mixer Tools -->
<svg height="800px" width="800px" version="1.1" id="Layer_1" xmlns="http://www.w3.org/2000/svg" xmlns:xlink="http://www.w3.org/1999/xlink" 
	 viewBox="0 0 447.969 447.969" xml:space="preserve">
<g transform="translate(0 -1020.36)">
	<g shape-rendering="auto" image-rendering="auto" color-rendering="auto" color-interpolation="sRGB">
		<path style="fill:#5A3392;" d="M105.344,1036.345l-24.437,127.906H0v16.061h16.062v103.938v16.064v8.031H32v-8.031h22.406
			l-30.438,152.031H424l-30.438-152.031h22.406v8.031h16.063v-128.033h15.938v-16.061h-80.344l-24.875-127.907L105.344,1036.345
			L105.344,1036.345z"/>
		<path style="fill:#29A3EC;" d="M118.562,1052.282h210.969l21.781,111.969h-254L118.562,1052.282z"/>
		<path style="fill:#3CDEF6;" d="M126.966,1060.981H321.17l20.05,103.07H107.405L126.966,1060.981L126.966,1060.981z"/>
		<path style="fill:#5A3392;" d="M167.937,1103.333c-13.16,0-23.969,10.809-23.969,23.969c0,13.16,10.808,24.094,23.969,24.094
			c13.16,0,24.094-10.934,24.094-24.094C192.031,1114.142,181.097,1103.333,167.937,1103.333z"/>
		<path style="fill:#FFFFFF;" d="M167.937,1119.396c4.513,0,8.031,3.393,8.031,7.906c0,4.51-3.518,8.031-8.031,8.031
			c-4.513,0-7.906-3.52-7.906-8.031C160.031,1122.79,163.424,1119.396,167.937,1119.396z"/>
		<g>
			<path style="fill:#EE746C;" d="M32,1180.313h23.969v24.002H32V1180.313z"/>
			<path style="fill:#EE746C;" d="M72.031,1180.313H96v24.002H72.031C72.031,1204.315,72.031,1180.313,72.031,1180.313z"/>
			<path style="fill:#EE746C;" d="M111.969,1180.313h24.094v24.002h-24.094V1180.313z"/>
			<path style="fill:#EE746C;" d="M152,1180.313h23.969v24.002H152V1180.313z"/>
			<path style="fill:#EE746C;" d="M192.031,1180.313H216v24.002h-23.969V1180.313z"/>
			<path style="fill:#EE746C;" d="M231.969,1180.313h24.094v24.002h-24.094V1180.313z"/>
			<path style="fill:#EE746C;" d="M272,1180.313h23.969v24.002H272V1180.313z"/>
			<path style="fill:#EE746C;" d="M312.031,1180.313H336v24.002h-23.969V1180.313z"/>
			<path style="fill:#EE746C;" d="M351.969,1180.313h24.094v24.002h-24.094V1180.313z"/>
			<path style="fill:#EE746C;" d="M392,1180.313h23.969v24.002H392V1180.313z"/>
			<path style="fill:#EE746C;" d="M32,1220.253h23.969v24.094H32V1220.253z"/>
			<path style="fill:#EE746C;" d="M72.031,1220.253H96v24.094H72.031C72.031,1244.347,72.031,1220.253,72.031,1220.253z"/>
			<path style="fill:#EE746C;" d="M111.969,1220.253h24.094v24.094h-24.094V1220.253z"/>
			<path style="fill:#EE746C;" d="M152,1220.253h23.969v24.094H152V1220.253z"/>
			<path style="fill:#EE746C;" d="M192.031,1220.253H216v24.094h-23.969V1220.253z"/>
			<path style="fill:#EE746C;" d="M231.969,1220.253h24.094v24.094h-24.094V1220.253z"/>
			<path style="fill:#EE746C;" d="M272,1220.253h23.969v24.094H272V1220.253z"/>
			<path style="fill:#EE746C;" d="M312.031,1220.253H336v24.094h-23.969V1220.253z"/>
			<path style="fill:#EE746C;" d="M351.969,1220.253h24.094v24.094h-24.094V1220.253z"/>
			<path style="fill:#EE746C;" d="M392,1220.253h23.969v24.094H392V1220.253z"/>
			<path style="fill:#EE746C;" d="M32,1260.282h23.969v23.969H32V1260.282z"/>
			<path style="fill:#EE746C;" d="M72.031,1260.282H96v23.969H72.031C72.031,1284.251,72.031,1260.282,72.031,1260.282z"/>
			<path style="fill:#EE746C;" d="M111.969,1260.282h24.094v23.969h-24.094V1260.282z"/>
			<path style="fill:#EE746C;" d="M152,1260.282h23.969v23.969H152V1260.282z"/>
			<path style="fill:#EE746C;" d="M192.031,1260.282H216v23.969h-23.969V1260.282z"/>
			<path style="fill:#EE746C;" d="M231.969,1260.282h24.094v23.969h-24.094V1260.282z"/>
			<path style="fill:#EE746C;" d="M272,1260.282h23.969v23.969H272V1260.282z"/>
			<path style="fill:#EE746C;" d="M312.031,1260.282H336v23.969h-23.969V1260.282z"/>
			<path style="fill:#EE746C;" d="M351.969,1260.282h24.094v23.969h-24.094V1260.282z"/>
			<path style="fill:#EE746C;" d="M392,1260.282h23.969v23.969H392V1260.282z"/>
		</g>
		<path style="fill:#29A3EC;" d="M70.75,1300.315h306.469l27.313,135.969H43.437L70.75,1300.315L70.75,1300.315z"/>
		<path style="fill:#3CDEF6;" d="M80.935,1301.833h286.099l25.497,126.932H55.437L80.935,1301.833L80.935,1301.833z"/>
	</g>
	<path style="fill:#FB9761;" d="M40.313,1188.296h368v88h-368L40.313,1188.296z"/>
	<g shape-rendering="auto" image-rendering="auto" color-rendering="auto" color-interpolation="sRGB">
		<path style="fill:#5A3392;" d="M215.984,1176.331v116h16v-116H215.984z"/>
		<path style="fill:#5A3392;" d="M55.984,1176.331v116h16v-116H55.984z"/>
		<path style="fill:#5A3392;" d="M95.984,1176.331v116h16v-116H95.984z"/>
		<path style="fill:#5A3392;" d="M135.984,1176.331v116h16v-116H135.984z"/>
		<path style="fill:#5A3392;" d="M175.984,1176.331v116h16v-116H175.984z"/>
		<path style="fill:#5A3392;" d="M255.984,1176.331v116h16v-116H255.984z"/>
		<path style="fill:#5A3392;" d="M295.984,1176.331v116h16v-116H295.984z"/>
		<path style="fill:#5A3392;" d="M335.984,1176.331v116h16v-116H335.984z"/>
		<path style="fill:#5A3392;" d="M375.984,1176.331v116h16v-116H375.984z"/>
		<path style="fill:#5A3392;" d="M19.984,1204.331v16h408v-16H19.984z"/>
		<path style="fill:#5A3392;" d="M19.984,1244.331v16h408v-16H19.984z"/>
	</g>
</g>
</svg>